<svg width="27" height="31" viewBox="0 0 27 31" fill="none" xmlns="http://www.w3.org/2000/svg">
<g filter="url(#filter0_d)">
<path d="M7.99873 9.59625L6.41248 7.99875C5.39998 9.30375 4.76999 10.8112 4.57874 12.375H6.85124C7.00874 11.3962 7.40249 10.44 7.99873 9.59625ZM6.85124 14.625H4.57874C4.76999 16.1888 5.38874 17.6962 6.40123 19.0012L7.98748 17.4037C7.40248 16.56 7.00874 15.615 6.85124 14.625ZM7.98748 20.61C9.29248 21.6225 10.8112 22.23 12.375 22.4212V20.1375C11.3962 19.9688 10.4512 19.5863 9.60748 18.9788L7.98748 20.61ZM14.625 4.57875V1.125L9.50623 6.24375L14.625 11.25V6.85125C17.82 7.39125 20.25 10.1587 20.25 13.5C20.25 16.8413 17.82 19.6087 14.625 20.1488V22.4212C19.0687 21.87 22.5 18.09 22.5 13.5C22.5 8.91 19.0687 5.13 14.625 4.57875Z" fill="black"/>
</g>
<defs>
<filter id="filter0_d" x="-4" y="0" width="35" height="35" filterUnits="userSpaceOnUse" color-interpolation-filters="sRGB">
<feFlood flood-opacity="0" result="BackgroundImageFix"/>
<feColorMatrix in="SourceAlpha" type="matrix" values="0 0 0 0 0 0 0 0 0 0 0 0 0 0 0 0 0 0 127 0"/>
<feOffset dy="4"/>
<feGaussianBlur stdDeviation="2"/>
<feColorMatrix type="matrix" values="0 0 0 0 0 0 0 0 0 0 0 0 0 0 0 0 0 0 0.25 0"/>
<feBlend mode="normal" in2="BackgroundImageFix" result="effect1_dropShadow"/>
<feBlend mode="normal" in="SourceGraphic" in2="effect1_dropShadow" result="shape"/>
</filter>
</defs>
</svg>
