<svg width="95" height="85" viewBox="0 0 95 85" fill="none" xmlns="http://www.w3.org/2000/svg">
<g clip-path="url(#clip0)" filter="url(#filter0_d)">
<path d="M87.6016 51.0861V43.7211C89.7057 42.8067 91.0677 40.572 90.5055 38.2219C86.8807 23.0308 63.4912 17.5977 47.5 17.5977C39.659 17.5977 30.7614 18.8823 23.249 21.5094C22.3648 21.8187 21.9055 22.7688 22.2215 23.6319C22.5381 24.4957 23.5111 24.9445 24.3939 24.6358C24.6833 24.534 24.9787 24.4348 25.2761 24.3369L27.5063 30.3212C28.4687 32.9055 31.4026 34.2349 34.039 33.2985C36.6788 32.3601 38.0461 29.4963 37.087 26.9146L35.2324 21.9361C37.1567 21.6196 39.1194 21.3732 41.0994 21.202L44.4985 30.3212C45.4609 32.9061 48.3947 34.2349 51.0312 33.2991C53.671 32.3601 55.0383 29.4963 54.0792 26.9146L51.8954 21.0542C54.0214 21.1819 56.1581 21.4011 58.2814 21.7078L61.4907 30.3212C62.4538 32.9061 65.3869 34.2349 68.0234 33.2991C70.6631 32.3601 72.0311 29.4963 71.0714 26.914L70.1673 24.4905C76.7611 26.748 85.3242 31.1312 87.196 38.9767C87.4277 39.9443 86.513 40.8405 85.5001 40.8405H9.50056C8.48434 40.8405 7.57301 39.9423 7.80466 38.9761C8.53014 35.934 10.321 33.1662 13.126 30.7486C13.8296 30.1422 13.8973 29.0929 13.2767 28.4055C12.6554 27.7181 11.5814 27.652 10.8779 28.2583C7.53252 31.1415 5.3846 34.4936 4.49516 38.2212C3.93362 40.5675 5.28968 42.8048 7.39844 43.7211V51.0861C5.42044 51.7716 4 53.6172 4 55.7812C4 62.1891 9.33595 67.4023 15.8945 67.4023H79.1055C85.6641 67.4023 91 62.1891 91 55.7812C91 53.6172 89.5796 51.7716 87.6016 51.0861ZM32.8774 30.1785C31.9966 30.4911 31.0196 30.0456 30.6996 29.1857L28.5311 23.3673C29.6131 23.0775 30.7229 22.8122 31.8526 22.5723L33.893 28.0489C34.2129 28.9101 33.7569 29.8653 32.8774 30.1785ZM49.8696 30.1785C48.9888 30.4911 48.0118 30.0456 47.6918 29.185L44.6326 20.9789C45.6017 20.94 46.5608 20.918 47.5 20.918C47.7496 20.918 47.9912 20.9199 48.2301 20.9225L50.8852 28.0489C51.2051 28.9101 50.7491 29.8653 49.8696 30.1785ZM66.8618 30.1785C65.981 30.4911 65.0039 30.0456 64.684 29.1857L62.1425 22.3648C63.4906 22.6313 64.8115 22.9335 66.0952 23.2681L67.8773 28.0489C68.1973 28.9101 67.7413 29.8653 66.8618 30.1785ZM65.1964 50.8008L71.9933 44.1602H84.2031V50.8008H65.1964ZM40.7031 56.7533L27.8136 44.1602H53.5933L40.7031 56.7533ZM10.7969 44.1602H23.0067L29.8036 50.8008H10.7969V44.1602ZM58.3996 44.1602H67.187L54.2969 56.7533L49.9035 52.4609L58.3996 44.1602ZM79.1055 64.082H15.8945C11.2097 64.082 7.39844 60.3584 7.39844 55.7812C7.39844 54.8656 8.16043 54.1211 9.09766 54.1211H33.202L39.5017 60.2753C39.8336 60.5996 40.2684 60.7617 40.7031 60.7617C41.1379 60.7617 41.5726 60.5996 41.9045 60.2753L47.5 54.8092L53.0955 60.2753C53.4274 60.5996 53.8621 60.7617 54.2969 60.7617C54.7316 60.7617 55.1664 60.5996 55.4983 60.2753L61.798 54.1211H85.9023C86.8396 54.1211 87.6016 54.8656 87.6016 55.7812C87.6016 60.3584 83.7903 64.082 79.1055 64.082Z" fill="black"/>
<path d="M19.293 25.7324C19.293 24.8161 18.5316 24.0723 17.5938 24.0723C16.6559 24.0723 15.8945 24.8161 15.8945 25.7324C15.8945 26.6488 16.6559 27.3926 17.5938 27.3926C18.5316 27.3926 19.293 26.6488 19.293 25.7324Z" fill="black"/>
</g>
<defs>
<filter id="filter0_d" x="0" y="0" width="95" height="93" filterUnits="userSpaceOnUse" color-interpolation-filters="sRGB">
<feFlood flood-opacity="0" result="BackgroundImageFix"/>
<feColorMatrix in="SourceAlpha" type="matrix" values="0 0 0 0 0 0 0 0 0 0 0 0 0 0 0 0 0 0 127 0"/>
<feOffset dy="4"/>
<feGaussianBlur stdDeviation="2"/>
<feColorMatrix type="matrix" values="0 0 0 0 0 0 0 0 0 0 0 0 0 0 0 0 0 0 0.25 0"/>
<feBlend mode="normal" in2="BackgroundImageFix" result="effect1_dropShadow"/>
<feBlend mode="normal" in="SourceGraphic" in2="effect1_dropShadow" result="shape"/>
</filter>
<clipPath id="clip0">
<rect width="87" height="85" fill="white" transform="translate(4)"/>
</clipPath>
</defs>
</svg>
