<svg width="88" height="85" viewBox="0 0 88 85" fill="none" xmlns="http://www.w3.org/2000/svg">
<g filter="url(#filter0_d)">
<path d="M29.5319 30.4628H24.4255V7.94677C24.4255 7.21517 23.8539 6.62234 23.1489 6.62234C22.4439 6.62234 21.8723 7.21517 21.8723 7.94677V30.4628H16.7659C9.72688 30.4628 4 36.4043 4 43.7075C4 51.0107 9.72688 56.9521 16.7659 56.9521H29.5319C36.5711 56.9521 42.2978 51.0105 42.2978 43.7075C42.2978 36.4043 36.5711 30.4628 29.5319 30.4628ZM29.5319 54.3033H16.7659C11.1347 54.3033 6.55312 49.55 6.55312 43.7075C6.55312 37.865 11.1345 33.1117 16.7659 33.1117H29.5319C35.1631 33.1117 39.7447 37.8649 39.7447 43.7075C39.7447 49.5499 35.1633 54.3033 29.5319 54.3033Z" fill="black"/>
<path d="M30.8085 50.3298C31.5135 50.3298 32.085 49.7368 32.085 49.0053C32.085 48.2739 31.5135 47.6809 30.8085 47.6809C30.1034 47.6809 29.5319 48.2739 29.5319 49.0053C29.5319 49.7368 30.1034 50.3298 30.8085 50.3298Z" fill="black"/>
<path d="M15.4894 39.734C16.1944 39.734 16.766 39.141 16.766 38.4096C16.766 37.6781 16.1944 37.0851 15.4894 37.0851C14.7844 37.0851 14.2128 37.6781 14.2128 38.4096C14.2128 39.141 14.7844 39.734 15.4894 39.734Z" fill="black"/>
<path d="M71.2341 30.4628H66.1276V7.94677C66.1276 7.21517 65.5561 6.62234 64.8511 6.62234C64.1461 6.62234 63.5745 7.21517 63.5745 7.94677V30.4628H58.4681C56.0584 30.4628 53.7087 31.166 51.6728 32.4968C51.0764 32.8867 50.8973 33.7045 51.2731 34.3234C51.6489 34.942 52.437 35.1283 53.0336 34.7381C54.6614 33.6743 56.5405 33.1118 58.4678 33.1118H71.2337C76.865 33.1118 81.4465 37.865 81.4465 43.7076C81.4465 49.55 76.8651 54.3034 71.2337 54.3034H58.4678C52.8366 54.3034 48.255 49.5502 48.255 43.7076C48.255 41.7078 48.7972 39.7585 49.8225 38.0696C50.1983 37.4507 50.0194 36.6328 49.4228 36.243C48.8262 35.8531 48.038 36.0389 47.6622 36.6576C46.38 38.7696 45.702 41.2074 45.702 43.7075C45.702 51.0107 51.4289 56.9521 58.468 56.9521H71.2339C78.2731 56.9521 83.9998 51.0105 83.9998 43.7075C84 36.4043 78.2731 30.4628 71.2341 30.4628Z" fill="black"/>
<path d="M80.1702 59.6011H7.82984C5.71797 59.6011 4 61.3837 4 63.5744C4 65.7653 5.71797 67.5479 7.82984 67.5479H9.46281L10.3939 70.4461C11.4625 73.7722 14.9469 76.3778 18.3261 76.3778H69.6736C73.053 76.3778 76.5372 73.7724 77.6058 70.4461L78.5369 67.5479H80.1698C82.2817 67.5479 83.9997 65.7653 83.9997 63.5744C83.9998 61.3837 82.282 59.6011 80.1702 59.6011ZM80.1702 64.8989H77.6445C77.6373 64.8989 20.5956 64.8989 20.5956 64.8989C19.8906 64.8989 19.3191 65.4917 19.3191 66.2233C19.3191 66.9549 19.8906 67.5477 20.5956 67.5477H75.8456L75.1836 69.6081C74.4659 71.8415 71.9428 73.7286 69.6734 73.7286H18.3263C16.057 73.7286 13.5337 71.8415 12.8161 69.6081L12.1541 67.5477H15.4892C16.1942 67.5477 16.7658 66.9549 16.7658 66.2233C16.7658 65.4917 16.1942 64.8989 15.4892 64.8989H10.3606C10.3561 64.8989 7.82969 64.8989 7.82969 64.8989C7.12563 64.8989 6.55312 64.3047 6.55312 63.5744C6.55312 62.844 7.12578 62.25 7.82969 62.25H80.1702C80.8742 62.25 81.4467 62.8441 81.4467 63.5744C81.4469 64.3049 80.8742 64.8989 80.1702 64.8989Z" fill="black"/>
<path d="M57.1916 39.734C57.8966 39.734 58.4682 39.141 58.4682 38.4096C58.4682 37.6781 57.8966 37.0851 57.1916 37.0851C56.4866 37.0851 55.915 37.6781 55.915 38.4096C55.915 39.141 56.4866 39.734 57.1916 39.734Z" fill="black"/>
<path d="M72.5106 45.0319C73.2157 45.0319 73.7872 44.4389 73.7872 43.7074C73.7872 42.976 73.2157 42.383 72.5106 42.383C71.8056 42.383 71.2341 42.976 71.2341 43.7074C71.2341 44.4389 71.8056 45.0319 72.5106 45.0319Z" fill="black"/>
<path d="M67.4042 50.3298C68.1092 50.3298 68.6808 49.7368 68.6808 49.0053C68.6808 48.2739 68.1092 47.6809 67.4042 47.6809C66.6992 47.6809 66.1277 48.2739 66.1277 49.0053C66.1277 49.7368 66.6992 50.3298 67.4042 50.3298Z" fill="black"/>
</g>
<defs>
<filter id="filter0_d" x="0" y="0" width="88" height="91" filterUnits="userSpaceOnUse" color-interpolation-filters="sRGB">
<feFlood flood-opacity="0" result="BackgroundImageFix"/>
<feColorMatrix in="SourceAlpha" type="matrix" values="0 0 0 0 0 0 0 0 0 0 0 0 0 0 0 0 0 0 127 0"/>
<feOffset dy="4"/>
<feGaussianBlur stdDeviation="2"/>
<feColorMatrix type="matrix" values="0 0 0 0 0 0 0 0 0 0 0 0 0 0 0 0 0 0 0.25 0"/>
<feBlend mode="normal" in2="BackgroundImageFix" result="effect1_dropShadow"/>
<feBlend mode="normal" in="SourceGraphic" in2="effect1_dropShadow" result="shape"/>
</filter>
</defs>
</svg>
