<svg width="32" height="32" viewBox="0 0 32 32" fill="none" xmlns="http://www.w3.org/2000/svg">
<g filter="url(#filter0_d)">
<path d="M24.1146 8.33333V3.44792H19.2292L15.7813 0L12.3333 3.44792H7.44792V8.33333L4 11.7813L7.44792 15.2292V20.1146H12.3333L15.7813 23.5625L19.2292 20.1146H24.1146V15.2292L27.5625 11.7813L24.1146 8.33333ZM22.0312 14.3646V18.0312H18.3646L15.7813 20.6146L13.1979 18.0312H9.53125V14.3646L6.94792 11.7813L9.53125 9.19792V5.53125H13.1979L15.7813 2.94792L18.3646 5.53125H22.0312V9.19792L24.6146 11.7813L22.0312 14.3646ZM15.7813 5.53125C12.3333 5.53125 9.53125 8.33333 9.53125 11.7813C9.53125 15.2292 12.3333 18.0312 15.7813 18.0312C19.2292 18.0312 22.0312 15.2292 22.0312 11.7813C22.0312 8.33333 19.2292 5.53125 15.7813 5.53125ZM15.7813 15.9479C13.4792 15.9479 11.6146 14.0833 11.6146 11.7813C11.6146 9.47917 13.4792 7.61458 15.7813 7.61458C18.0833 7.61458 19.9479 9.47917 19.9479 11.7813C19.9479 14.0833 18.0833 15.9479 15.7813 15.9479Z" fill="black"/>
</g>
<defs>
<filter id="filter0_d" x="0" y="0" width="31.5625" height="31.5625" filterUnits="userSpaceOnUse" color-interpolation-filters="sRGB">
<feFlood flood-opacity="0" result="BackgroundImageFix"/>
<feColorMatrix in="SourceAlpha" type="matrix" values="0 0 0 0 0 0 0 0 0 0 0 0 0 0 0 0 0 0 127 0"/>
<feOffset dy="4"/>
<feGaussianBlur stdDeviation="2"/>
<feColorMatrix type="matrix" values="0 0 0 0 0 0 0 0 0 0 0 0 0 0 0 0 0 0 0.25 0"/>
<feBlend mode="normal" in2="BackgroundImageFix" result="effect1_dropShadow"/>
<feBlend mode="normal" in="SourceGraphic" in2="effect1_dropShadow" result="shape"/>
</filter>
</defs>
</svg>
