<svg width="87" height="85" viewBox="0 0 87 85" fill="none" xmlns="http://www.w3.org/2000/svg">
<g clip-path="url(#clip0)" filter="url(#filter0_d)">
<path d="M23.426 23.3864C22.8454 23.2429 22.4378 22.7353 22.4333 22.1519V1.28333C22.4333 0.574617 21.8438 0 21.1167 0H13.2167C12.4895 0 11.9 0.574617 11.9 1.28333V22.1519C11.8955 22.7359 11.4866 23.2429 10.9061 23.3864C6.83971 24.4128 3.99936 27.9889 4 32.0833V75.7167C4 76.4254 4.58954 77 5.31667 77H29.0167C29.7438 77 30.3333 76.4254 30.3333 75.7167V32.0833C30.3333 27.9889 27.493 24.4122 23.426 23.3864ZM14.5333 2.56667H19.8V5.13333H14.5333V2.56667ZM27.7 60.3167H6.63333V42.35H27.7V60.3167ZM6.63333 74.4333V62.8833H27.7V74.4333H6.63333ZM27.7 39.7833H6.63333V32.0833C6.63205 29.1582 8.66041 26.6028 11.5657 25.8697C13.308 25.4336 14.5282 23.9052 14.5333 22.1519V7.7H19.8V22.1519C19.8032 23.9058 21.0234 25.4367 22.7664 25.8735C25.6704 26.606 27.6994 29.1595 27.7 32.0833V39.7833Z" fill="black"/>
<path d="M51.7671 28.6964C49.8049 25.6372 48.7654 22.1018 48.7667 18.4943V1.28333C48.7667 0.574617 48.1771 0 47.45 0H39.55C38.8229 0 38.2333 0.574617 38.2333 1.28333V18.4943C38.2346 22.1005 37.1963 25.6347 35.2355 28.6926L35.0522 28.9753C32.8278 32.4424 31.6487 36.4497 31.65 40.539V75.7167C31.65 76.4254 32.2395 77 32.9667 77H54.0333C54.7604 77 55.35 76.4254 55.35 75.7167V40.539C55.3506 36.4484 54.1709 32.4399 51.9452 28.9715L51.7671 28.6964ZM40.8667 2.56667H46.1333V5.13333H40.8667V2.56667ZM52.7167 74.4333H34.2833V40.539C34.282 36.9328 35.3203 33.3986 37.2812 30.3407L37.4644 30.0581C39.6889 26.5909 40.8679 22.5837 40.8667 18.4943V7.7H46.1333V18.4943C46.1327 22.5849 47.3124 26.5934 49.5381 30.0618L49.7162 30.3369C51.6784 33.3961 52.7179 36.9315 52.7167 40.539V74.4333Z" fill="black"/>
<path d="M43.5 44.9167C39.8644 44.9167 36.9167 47.7898 36.9167 51.3333C36.9167 54.8769 39.8644 57.75 43.5 57.75C47.1356 57.75 50.0833 54.8769 50.0833 51.3333C50.0788 47.791 47.1343 44.9211 43.5 44.9167ZM43.5 55.1833C41.3186 55.1833 39.55 53.4595 39.55 51.3333C39.55 49.2072 41.3186 47.4833 43.5 47.4833C45.6814 47.4833 47.45 49.2072 47.45 51.3333C47.45 53.4595 45.6814 55.1833 43.5 55.1833Z" fill="black"/>
<path d="M75.3777 12.3264L75.3636 12.3201C75.1984 12.2067 75.1 12.0225 75.1 11.8257V1.28333C75.1 0.574617 74.5105 0 73.7833 0H65.8834C65.1562 0 64.5667 0.574617 64.5667 1.28333V11.8232C64.5667 12.02 64.4683 12.2042 64.3031 12.3176L64.2877 12.3264C59.5212 15.4169 56.6596 20.6286 56.6667 26.2081V75.7167C56.6667 76.4254 57.2562 77 57.9834 77H81.6833C82.4105 77 83 76.4254 83 75.7167V26.2081C83.0064 20.6286 80.1449 15.4163 75.3777 12.3264ZM67.2 2.56667H72.4667V5.13333H67.2V2.56667ZM80.3667 74.4333H59.3V26.2081C59.2942 21.4958 61.7064 17.0931 65.7278 14.477L65.7516 14.4619C66.6574 13.8742 67.2007 12.8835 67.2 11.8232V7.7H72.4667V11.8232C72.466 12.8835 73.0093 13.8742 73.9151 14.4619L73.9389 14.4757C77.9596 17.0931 80.3718 21.4958 80.3667 26.2081V74.4333Z" fill="black"/>
<path d="M63.25 33.3667C62.5229 33.3667 61.9333 33.9413 61.9333 34.65V68.0167C61.9333 68.7254 62.5229 69.3 63.25 69.3H76.4167C77.1438 69.3 77.7333 68.7254 77.7333 68.0167V34.65C77.7333 33.9413 77.1438 33.3667 76.4167 33.3667H63.25ZM75.1 66.7333H64.5667V35.9333H75.1V66.7333Z" fill="black"/>
</g>
<defs>
<filter id="filter0_d" x="0" y="0" width="87" height="85" filterUnits="userSpaceOnUse" color-interpolation-filters="sRGB">
<feFlood flood-opacity="0" result="BackgroundImageFix"/>
<feColorMatrix in="SourceAlpha" type="matrix" values="0 0 0 0 0 0 0 0 0 0 0 0 0 0 0 0 0 0 127 0"/>
<feOffset dy="4"/>
<feGaussianBlur stdDeviation="2"/>
<feColorMatrix type="matrix" values="0 0 0 0 0 0 0 0 0 0 0 0 0 0 0 0 0 0 0.25 0"/>
<feBlend mode="normal" in2="BackgroundImageFix" result="effect1_dropShadow"/>
<feBlend mode="normal" in="SourceGraphic" in2="effect1_dropShadow" result="shape"/>
</filter>
<clipPath id="clip0">
<rect width="79" height="77" fill="white" transform="translate(4)"/>
</clipPath>
</defs>
</svg>
