<svg width="32" height="32" viewBox="0 0 32 32" fill="none" xmlns="http://www.w3.org/2000/svg">
<g filter="url(#filter0_d)">
<path d="M20.6667 14.6667H19.6133L19.24 14.3067C20.5467 12.7867 21.3333 10.8133 21.3333 8.66667C21.3333 3.88 17.4533 0 12.6667 0C7.88 0 4 3.88 4 8.66667C4 13.4533 7.88 17.3333 12.6667 17.3333C14.8133 17.3333 16.7867 16.5467 18.3067 15.24L18.6667 15.6133V16.6667L25.3333 23.32L27.32 21.3333L20.6667 14.6667ZM12.6667 14.6667C9.34667 14.6667 6.66667 11.9867 6.66667 8.66667C6.66667 5.34667 9.34667 2.66667 12.6667 2.66667C15.9867 2.66667 18.6667 5.34667 18.6667 8.66667C18.6667 11.9867 15.9867 14.6667 12.6667 14.6667Z" fill="black"/>
</g>
<defs>
<filter id="filter0_d" x="0" y="0" width="31.32" height="31.32" filterUnits="userSpaceOnUse" color-interpolation-filters="sRGB">
<feFlood flood-opacity="0" result="BackgroundImageFix"/>
<feColorMatrix in="SourceAlpha" type="matrix" values="0 0 0 0 0 0 0 0 0 0 0 0 0 0 0 0 0 0 127 0"/>
<feOffset dy="4"/>
<feGaussianBlur stdDeviation="2"/>
<feColorMatrix type="matrix" values="0 0 0 0 0 0 0 0 0 0 0 0 0 0 0 0 0 0 0.25 0"/>
<feBlend mode="normal" in2="BackgroundImageFix" result="effect1_dropShadow"/>
<feBlend mode="normal" in="SourceGraphic" in2="effect1_dropShadow" result="shape"/>
</filter>
</defs>
</svg>
