<svg width="82" height="70" viewBox="0 0 82 70" fill="none" xmlns="http://www.w3.org/2000/svg">
<g filter="url(#filter0_d)">
<path d="M74.9676 20.4249C74.669 19.9481 74.0062 19.7839 73.4873 20.0586C72.9684 20.333 72.7899 20.942 73.0887 21.4188C74.9092 24.3248 75.8322 27.6354 75.8322 31.2587V56.3182C75.8322 57.9707 74.3691 59.315 72.571 59.315H8.03272C7.00452 59.315 6.16797 58.5463 6.16797 57.6014C6.16797 56.6566 7.00452 55.888 8.03272 55.888H16.369C16.9677 55.888 17.453 55.442 17.453 54.8919C17.453 54.3418 16.9677 53.8958 16.369 53.8958H9.11671V46.781H69.4488C70.1045 46.781 70.6381 47.2713 70.6381 47.874V52.8028C70.6381 53.4055 70.1047 53.8957 69.4488 53.8957H20.705C20.1063 53.8957 19.621 54.3417 19.621 54.8918C19.621 55.4419 20.1063 55.8879 20.705 55.8879H69.4488C71.3 55.8879 72.8061 54.5038 72.8061 52.8028V47.874C72.8061 46.1728 71.3001 44.7889 69.4488 44.7889H8.03272C7.00452 44.7889 6.16797 44.0201 6.16797 43.0753C6.16797 42.1305 7.00452 41.3617 8.03272 41.3617H69.4488C71.3 41.3617 72.8061 39.9778 72.8061 38.2766V33.3478C72.8061 31.6466 71.3005 30.2627 69.4498 30.2627H8.12825C8.10484 30.2614 8.08157 30.2602 8.05801 30.2598C8.05368 30.2597 8.04948 30.2602 8.04515 30.2601C7.03068 30.232 6.19442 29.4973 6.16884 28.5958C6.14846 27.8847 6.5955 27.2465 7.30731 26.9699C9.33408 26.182 33.5185 15.8104 43.0926 11.7012C43.3584 12.1951 43.5763 12.7406 43.743 13.3404C40.746 13.8813 38.4777 16.313 38.4777 19.2231C38.4777 22.5293 41.4048 25.219 45.0027 25.219C48.6007 25.219 51.5277 22.5293 51.5277 19.2231C51.5277 16.215 49.1045 13.718 45.9578 13.2919C45.7474 12.4003 45.4477 11.5867 45.0607 10.8562C46.0773 10.4197 46.7307 10.1392 46.9098 10.0622C49.1861 9.07403 51.7646 8.87455 54.1711 9.50049C59.0875 10.7796 65.9375 13.3438 70.6522 18.2955C71.0464 18.7095 71.7311 18.7516 72.1817 18.3893C72.6324 18.0269 72.6781 17.3977 72.2838 16.9837C67.2195 11.6649 59.96 8.93631 54.7616 7.58387C51.8511 6.82657 48.7337 7.06723 45.9879 8.25923C45.9358 8.28154 45.1673 8.61158 43.878 9.16514C42.8326 8.01472 41.4659 7.19407 39.8019 6.7352C39.2284 6.57702 38.6243 6.87598 38.4521 7.40298C38.2801 7.92985 38.6055 8.48527 39.1788 8.64332C40.2187 8.93006 41.0963 9.40221 41.8136 10.0511C32.0494 14.2415 8.40547 24.3799 6.46282 25.135C4.92385 25.733 3.9578 27.112 4.00159 28.6478C4.04798 30.276 5.28994 31.6549 6.94888 32.1019V39.5066C5.25005 39.9429 4 41.377 4 43.0753C4 44.7736 5.25005 46.2076 6.94873 46.644V54.0329C5.25005 54.4692 4 55.9033 4 57.6014C4 59.6448 5.8091 61.3072 8.03272 61.3072H72.5708C75.5645 61.3072 78 59.069 78 56.3182V31.2587C78 27.2821 76.9798 23.6371 74.9676 20.4249ZM9.11671 32.2549H69.4498V32.2548C70.0641 32.2548 70.5709 32.6858 70.6319 33.2361C70.636 33.2728 70.638 33.3101 70.638 33.3477V38.2766C70.638 38.8793 70.1045 39.3696 69.4486 39.3696H9.11671V32.2549ZM44.9516 15.2205C44.9823 15.2229 45.0133 15.2243 45.0445 15.2243C45.0588 15.2243 45.0733 15.2218 45.0877 15.2213C47.451 15.2631 49.3598 17.0415 49.3598 19.2231C49.3598 21.4308 47.4053 23.2268 45.0027 23.2268C42.6002 23.2268 40.6457 21.4308 40.6457 19.2231C40.6457 17.0311 42.5727 15.2458 44.9516 15.2205Z" fill="black"/>
</g>
<defs>
<filter id="filter0_d" x="0" y="0" width="82" height="76" filterUnits="userSpaceOnUse" color-interpolation-filters="sRGB">
<feFlood flood-opacity="0" result="BackgroundImageFix"/>
<feColorMatrix in="SourceAlpha" type="matrix" values="0 0 0 0 0 0 0 0 0 0 0 0 0 0 0 0 0 0 127 0"/>
<feOffset dy="4"/>
<feGaussianBlur stdDeviation="2"/>
<feColorMatrix type="matrix" values="0 0 0 0 0 0 0 0 0 0 0 0 0 0 0 0 0 0 0.25 0"/>
<feBlend mode="normal" in2="BackgroundImageFix" result="effect1_dropShadow"/>
<feBlend mode="normal" in="SourceGraphic" in2="effect1_dropShadow" result="shape"/>
</filter>
</defs>
</svg>
